<!--?xml version="1.0" encoding="UTF-8"?-->
<svg width="240px" height="247px" viewBox="0 0 240 247" version="1.1" xmlns="http://www.w3.org/2000/svg" xmlns:xlink="http://www.w3.org/1999/xlink" style="">
    <!-- Generator: Sketch 51.2 (57519) - http://www.bohemiancoding.com/sketch -->
    <title>Group</title>
    <desc>Created with Sketch.</desc>
    <defs></defs>
    <g id="Page-1" stroke="none" stroke-width="1" fill="none" fill-rule="evenodd">
        <g id="Group" transform="translate(-1.000000, 0.000000)" stroke="#A563D1" stroke-width="4">
            <path d="M3.6696521,187 C11.6732738,212.356121 34.5671264,229.414574 72.6600781,238.161843 C112.069981,247.211523 167.532322,247.284604 239,238.347043 L239,187 L3.6696521,187 Z" id="Rectangle" class="UKXsaLDW_0"></path>
            <path d="M12.5,204.5 L237,204.5" id="Line" stroke-linecap="square" class="UKXsaLDW_1"></path>
            <path d="M42.5,227.5 L238,227.5" id="Line-2" stroke-linecap="square" class="UKXsaLDW_2"></path>
            <path id="Rectangle-2" fill="#D8D8D8" width="3" height="181" d="M128 2 L131 2 L131 183 L128 183 Z" class="UKXsaLDW_3"></path>
            <path id="Triangle" d="M132.953125,7.87109375L162,27.2602895L132.953125,35Z" class="UKXsaLDW_4"></path>
            <path d="M132.644531,45.8125 C193.420573,93.7480755 223.808594,127.399117 223.808594,146.765625 C223.808594,166.132133 193.420573,172.93682 132.644531,167.179688 C139.792969,132.750651 143.367188,107.789063 143.367188,92.2949219 C143.367188,76.8007813 139.792969,61.3066406 132.644531,45.8125 Z" id="Triangle-2" class="UKXsaLDW_5"></path>
            <path id="Triangle-3" d="M120.375,61.0625L120.375,160L87.1875,160Z" class="UKXsaLDW_6"></path>
        </g>
    </g>
<style data-made-with="vivus-instant">.UKXsaLDW_0{stroke-dasharray:544 546;stroke-dashoffset:545;animation:UKXsaLDW_draw 2000ms linear 0ms forwards;}.UKXsaLDW_1{stroke-dasharray:225 227;stroke-dashoffset:226;animation:UKXsaLDW_draw 2000ms linear 166ms forwards;}.UKXsaLDW_2{stroke-dasharray:196 198;stroke-dashoffset:197;animation:UKXsaLDW_draw 2000ms linear 333ms forwards;}.UKXsaLDW_3{stroke-dasharray:368 370;stroke-dashoffset:369;animation:UKXsaLDW_draw 2000ms linear 500ms forwards;}.UKXsaLDW_4{stroke-dasharray:93 95;stroke-dashoffset:94;animation:UKXsaLDW_draw 2000ms linear 666ms forwards;}.UKXsaLDW_5{stroke-dasharray:364 366;stroke-dashoffset:365;animation:UKXsaLDW_draw 2000ms linear 833ms forwards;}.UKXsaLDW_6{stroke-dasharray:237 239;stroke-dashoffset:238;animation:UKXsaLDW_draw 2000ms linear 1000ms forwards;}@keyframes UKXsaLDW_draw{100%{stroke-dashoffset:0;}}@keyframes UKXsaLDW_fade{0%{stroke-opacity:1;}94.44444444444444%{stroke-opacity:1;}100%{stroke-opacity:0;}}</style></svg>